<?xml version="1.0" encoding="UTF-8"?><svg id="Layer_1" xmlns="http://www.w3.org/2000/svg" viewBox="0 0 32 32"><defs><style>.cls-1{fill:#fff;}.cls-2{fill:#4286f5;}</style></defs><rect class="cls-2" width="32" height="32" rx="2.85" ry="2.85"/><path class="cls-1" d="m16.75,16.88v-5.38c0-.41-.34-.75-.75-.75s-.75.34-.75.75v5.38c-.87.31-1.5,1.14-1.5,2.12,0,1.24,1.01,2.25,2.25,2.25s2.25-1.01,2.25-2.25c0-.98-.63-1.81-1.5-2.12Z"/><path class="cls-1" d="m26.36,11.71c-.59-1.43-.67-3.25-1.74-4.33-1.08-1.08-2.9-1.15-4.33-1.74-1.38-.57-2.71-1.83-4.29-1.83s-2.91,1.25-4.29,1.83c-1.43.59-3.25.67-4.33,1.74-1.08,1.08-1.15,2.9-1.74,4.33-.57,1.38-1.83,2.71-1.83,4.29s1.25,2.91,1.83,4.29c.59,1.43.67,3.25,1.74,4.33,1.08,1.08,2.9,1.15,4.33,1.74,1.38.57,2.71,1.83,4.29,1.83s2.91-1.25,4.29-1.83c1.43-.59,3.25-.67,4.33-1.74,1.08-1.08,1.15-2.9,1.74-4.33.57-1.38,1.83-2.71,1.83-4.29s-1.25-2.91-1.83-4.29Zm-10.36,11.6c-2.38,0-4.31-1.93-4.31-4.31,0-1.31.58-2.48,1.5-3.27v-4.23c0-1.55,1.26-2.81,2.81-2.81s2.81,1.26,2.81,2.81v4.23c.92.79,1.5,1.96,1.5,3.27,0,2.38-1.93,4.31-4.31,4.31Z"/></svg>